<svg width="19" height="33" viewBox="0 0 19 33" fill="none" xmlns="http://www.w3.org/2000/svg">
<path d="M0.5 32.6719L0.5 26.2813C0.5 25.1667 0.619791 24.1927 0.859374 23.3594C1.09896 22.5156 1.43229 21.8125 1.85937 21.25C2.28646 20.6875 2.79687 20.2656 3.39062 19.9844C3.98437 19.7031 4.63021 19.5625 5.32812 19.5625C5.90104 19.5625 6.4375 19.6719 6.9375 19.8906C7.4375 20.1094 7.89062 20.4219 8.29687 20.8281C8.69271 21.224 9.04167 21.7031 9.34375 22.2656C9.63542 22.8177 9.85937 23.4271 10.0156 24.0937L19 17.3594L19 20.9687L10.2969 27.3906L10.2969 29.5625L19 29.5625L19 32.6719L0.5 32.6719ZM9.375 29.5625L9.375 27.7812C9.375 27.0833 9.28646 26.4375 9.10937 25.8437C8.92187 25.25 8.65625 24.7396 8.3125 24.3125C7.96875 23.875 7.55208 23.5365 7.0625 23.2969C6.57292 23.0469 6.02604 22.9219 5.42187 22.9219C4.86979 22.9219 4.36458 23.0208 3.90625 23.2187C3.44792 23.4062 3.05208 23.6719 2.71875 24.0156C2.38542 24.3594 2.125 24.7708 1.9375 25.25C1.75 25.7292 1.65625 26.2552 1.65625 26.8281L1.65625 29.5625L9.375 29.5625ZM0.499999 16.2956L0.499999 9.905C0.499999 8.79042 0.61979 7.81646 0.859374 6.98313C1.09896 6.13938 1.43229 5.43625 1.85937 4.87375C2.28646 4.31125 2.79687 3.88938 3.39062 3.60813C3.98437 3.32688 4.63021 3.18625 5.32812 3.18625C5.90104 3.18625 6.4375 3.29563 6.9375 3.51438C7.4375 3.73313 7.89062 4.04563 8.29687 4.45188C8.69271 4.84771 9.04167 5.32688 9.34375 5.88938C9.63542 6.44146 9.85937 7.05083 10.0156 7.7175L19 0.983125L19 4.5925L10.2969 11.0144L10.2969 13.1863L19 13.1862L19 16.2956L0.499999 16.2956ZM9.375 13.1863L9.375 11.405C9.375 10.7071 9.28646 10.0613 9.10937 9.4675C8.92187 8.87375 8.65625 8.36333 8.3125 7.93625C7.96875 7.49875 7.55208 7.16021 7.0625 6.92063C6.57292 6.67063 6.02604 6.54563 5.42187 6.54563C4.86979 6.54563 4.36458 6.64458 3.90625 6.8425C3.44792 7.03 3.05208 7.29563 2.71875 7.63938C2.38542 7.98313 2.125 8.39458 1.9375 8.87375C1.75 9.35292 1.65625 9.87896 1.65625 10.4519L1.65625 13.1863L9.375 13.1863Z" fill="black"/>
</svg>
